<mxfile host="app.diagrams.net" modified="2020-09-24T00:58:26.135Z" agent="5.0 (Windows NT 10.0; Win64; x64) AppleWebKit/537.36 (KHTML, like Gecko) Chrome/85.0.4183.121 Safari/537.36" etag="DwGeFJ7IdfpS3y5a_AHD" version="13.7.5" type="github">
  <diagram id="q69a2SAhFeMrS_nGpUyQ" name="Page-1">
    <mxGraphModel dx="526" dy="482" grid="1" gridSize="10" guides="1" tooltips="1" connect="1" arrows="1" fold="1" page="1" pageScale="1" pageWidth="827" pageHeight="1169" math="0" shadow="0">
      <root>
        <mxCell id="0" />
        <mxCell id="1" parent="0" />
        <mxCell id="ho8g8njOf52mbjShRIB9-1" value="&lt;font style=&quot;vertical-align: inherit&quot;&gt;&lt;font style=&quot;vertical-align: inherit&quot;&gt;&lt;font style=&quot;vertical-align: inherit&quot;&gt;&lt;font style=&quot;vertical-align: inherit&quot;&gt;seudocÃ³digo &lt;/font&gt;&lt;/font&gt;&lt;br&gt;&lt;font style=&quot;vertical-align: inherit&quot;&gt;&lt;font style=&quot;vertical-align: inherit&quot;&gt;1) inicio &lt;/font&gt;&lt;/font&gt;&lt;br&gt;&lt;font style=&quot;vertical-align: inherit&quot;&gt;&lt;font style=&quot;vertical-align: inherit&quot;&gt;2) Mostrar Hola Mundo&lt;br&gt;&lt;/font&gt;&lt;/font&gt;&lt;font style=&quot;vertical-align: inherit&quot;&gt;&lt;font style=&quot;vertical-align: inherit&quot;&gt;3)Fin&lt;/font&gt;&lt;/font&gt;&lt;br&gt;&lt;br&gt;&lt;/font&gt;&lt;/font&gt;" style="rounded=0;whiteSpace=wrap;html=1;align=left;fillColor=#f8cecc;strokeColor=#b85450;" vertex="1" parent="1">
          <mxGeometry x="414" y="10" width="120" height="130" as="geometry" />
        </mxCell>
        <mxCell id="ho8g8njOf52mbjShRIB9-4" style="edgeStyle=orthogonalEdgeStyle;rounded=0;orthogonalLoop=1;jettySize=auto;html=1;exitX=0.5;exitY=1;exitDx=0;exitDy=0;entryX=0.583;entryY=0;entryDx=0;entryDy=0;entryPerimeter=0;" edge="1" parent="1" source="ho8g8njOf52mbjShRIB9-2" target="ho8g8njOf52mbjShRIB9-3">
          <mxGeometry relative="1" as="geometry" />
        </mxCell>
        <mxCell id="ho8g8njOf52mbjShRIB9-2" value="&amp;nbsp;inicio" style="rounded=1;whiteSpace=wrap;html=1;align=center;fillColor=#d5e8d4;strokeColor=#82b366;" vertex="1" parent="1">
          <mxGeometry x="125" y="45" width="120" height="60" as="geometry" />
        </mxCell>
        <mxCell id="ho8g8njOf52mbjShRIB9-7" style="edgeStyle=orthogonalEdgeStyle;rounded=0;orthogonalLoop=1;jettySize=auto;html=1;exitX=0.5;exitY=1;exitDx=0;exitDy=0;entryX=0.5;entryY=0;entryDx=0;entryDy=0;" edge="1" parent="1" source="ho8g8njOf52mbjShRIB9-3" target="ho8g8njOf52mbjShRIB9-5">
          <mxGeometry relative="1" as="geometry" />
        </mxCell>
        <mxCell id="ho8g8njOf52mbjShRIB9-3" value="&amp;nbsp; &amp;nbsp; &amp;nbsp; Mostrar Hola mundo" style="shape=parallelogram;perimeter=parallelogramPerimeter;whiteSpace=wrap;html=1;fixedSize=1;align=left;fillColor=#ffe6cc;strokeColor=#d79b00;" vertex="1" parent="1">
          <mxGeometry x="100" y="140" width="170" height="50" as="geometry" />
        </mxCell>
        <mxCell id="ho8g8njOf52mbjShRIB9-5" value="&amp;nbsp;Fin" style="rounded=1;whiteSpace=wrap;html=1;align=center;fillColor=#d5e8d4;strokeColor=#82b366;" vertex="1" parent="1">
          <mxGeometry x="130" y="220" width="130" height="60" as="geometry" />
        </mxCell>
      </root>
    </mxGraphModel>
  </diagram>
</mxfile>
